<mxfile host="app.diagrams.net" modified="2024-04-05T03:55:05.140Z" agent="Mozilla/5.0 (Windows NT 10.0; Win64; x64) AppleWebKit/537.36 (KHTML, like Gecko) Chrome/123.0.0.0 Safari/537.36" etag="ofSwQG_Zcq5UbvtaQn8V" version="24.2.2" type="device">
  <diagram name="Page-1" id="ptGT10x4MBkrm0GtYfOt">
    <mxGraphModel dx="1050" dy="596" grid="1" gridSize="10" guides="1" tooltips="1" connect="1" arrows="1" fold="1" page="1" pageScale="1" pageWidth="850" pageHeight="1100" math="0" shadow="0">
      <root>
        <mxCell id="0" />
        <mxCell id="1" parent="0" />
        <mxCell id="DPLYXIbTDX89WcI7YAck-5" style="edgeStyle=orthogonalEdgeStyle;rounded=0;orthogonalLoop=1;jettySize=auto;html=1;exitX=1;exitY=0.5;exitDx=0;exitDy=0;" edge="1" parent="1" source="DPLYXIbTDX89WcI7YAck-1">
          <mxGeometry relative="1" as="geometry">
            <mxPoint x="370" y="290" as="targetPoint" />
            <Array as="points">
              <mxPoint x="295" y="290" />
              <mxPoint x="295" y="291" />
            </Array>
          </mxGeometry>
        </mxCell>
        <mxCell id="DPLYXIbTDX89WcI7YAck-11" value="CAPTURED&lt;div&gt;MARKSHEET&lt;/div&gt;" style="edgeLabel;html=1;align=center;verticalAlign=middle;resizable=0;points=[];" vertex="1" connectable="0" parent="DPLYXIbTDX89WcI7YAck-5">
          <mxGeometry x="-0.0755" y="1" relative="1" as="geometry">
            <mxPoint as="offset" />
          </mxGeometry>
        </mxCell>
        <mxCell id="DPLYXIbTDX89WcI7YAck-1" value="USER" style="rounded=0;whiteSpace=wrap;html=1;" vertex="1" parent="1">
          <mxGeometry x="100" y="260" width="120" height="60" as="geometry" />
        </mxCell>
        <mxCell id="DPLYXIbTDX89WcI7YAck-2" value="USER" style="rounded=0;whiteSpace=wrap;html=1;" vertex="1" parent="1">
          <mxGeometry x="650" y="260" width="120" height="60" as="geometry" />
        </mxCell>
        <mxCell id="DPLYXIbTDX89WcI7YAck-3" value="0.0&lt;div&gt;OCR&lt;/div&gt;" style="ellipse;whiteSpace=wrap;html=1;aspect=fixed;strokeColor=#3C00FF;" vertex="1" parent="1">
          <mxGeometry x="380" y="240" width="120" height="120" as="geometry" />
        </mxCell>
        <mxCell id="DPLYXIbTDX89WcI7YAck-4" value="" style="endArrow=classic;html=1;rounded=0;entryX=0;entryY=0.5;entryDx=0;entryDy=0;exitX=1;exitY=0.417;exitDx=0;exitDy=0;exitPerimeter=0;" edge="1" parent="1" source="DPLYXIbTDX89WcI7YAck-3" target="DPLYXIbTDX89WcI7YAck-2">
          <mxGeometry width="50" height="50" relative="1" as="geometry">
            <mxPoint x="400" y="330" as="sourcePoint" />
            <mxPoint x="450" y="280" as="targetPoint" />
            <Array as="points" />
          </mxGeometry>
        </mxCell>
        <mxCell id="DPLYXIbTDX89WcI7YAck-7" value="RETURNS&lt;div&gt;EXCEL SHEET&lt;/div&gt;" style="edgeLabel;html=1;align=center;verticalAlign=middle;resizable=0;points=[];" vertex="1" connectable="0" parent="DPLYXIbTDX89WcI7YAck-4">
          <mxGeometry x="-0.0293" y="-3" relative="1" as="geometry">
            <mxPoint as="offset" />
          </mxGeometry>
        </mxCell>
      </root>
    </mxGraphModel>
  </diagram>
</mxfile>
